{
  "accessors": [
    {
      "bufferView": 2,
      "componentType": 5126,
      "count": 938,
      "max": [
        1.3000000715255737,
        0.09000000357627869,
        -2.9802322387695313e-08
      ],
      "min": [
        -6.661338412448735e-18,
        4.081428050994873e-05,
        -0.3199999928474426
      ],
      "type": "VEC3"
    },
    {
      "bufferView": 2,
      "byteOffset": 11256,
      "componentType": 5126,
      "count": 938,
      "max": [
        1.0,
        1.0,
        1.0
      ],
      "min": [
        -1.0,
        -1.0,
        -1.0
      ],
      "type": "VEC3"
    },
    {
      "bufferView": 1,
      "componentType": 5126,
      "count": 938,
      "max": [
        0.8983064293861389,
        1.0
      ],
      "min": [
        0.5631250739097595,
        0.0
      ],
      "type": "VEC2"
    },
    {
      "bufferView": 1,
      "byteOffset": 7504,
      "componentType": 5126,
      "count": 938,
      "max": [
        0.8983064293861389,
        1.0
      ],
      "min": [
        0.5631250739097595,
        0.0
      ],
      "type": "VEC2"
    },
    {
      "bufferView": 0,
      "componentType": 5125,
      "count": 1506,
      "type": "SCALAR"
    },
    {
      "bufferView": 2,
      "byteOffset": 22512,
      "componentType": 5126,
      "count": 406,
      "max": [
        1.3000000715255737,
        0.09299999475479126,
        -2.9802322387695313e-08
      ],
      "min": [
        -6.661338412448735e-18,
        4.082918167114258e-05,
        -0.3199999928474426
      ],
      "type": "VEC3"
    },
    {
      "bufferView": 2,
      "byteOffset": 27384,
      "componentType": 5126,
      "count": 406,
      "max": [
        1.0,
        1.0,
        1.0
      ],
      "min": [
        -1.0,
        -0.2433120608329773,
        -1.0
      ],
      "type": "VEC3"
    },
    {
      "bufferView": 1,
      "byteOffset": 15008,
      "componentType": 5126,
      "count": 406,
      "max": [
        1.0,
        0.6750243306159973
      ],
      "min": [
        0.0,
        5.960464477539063e-08
      ],
      "type": "VEC2"
    },
    {
      "bufferView": 1,
      "byteOffset": 18256,
      "componentType": 5126,
      "count": 406,
      "max": [
        1.0,
        0.9968501925468445
      ],
      "min": [
        6.556511067401516e-08,
        0.6873265504837036
      ],
      "type": "VEC2"
    },
    {
      "bufferView": 0,
      "byteOffset": 6024,
      "componentType": 5125,
      "count": 654,
      "type": "SCALAR"
    },
    {
      "bufferView": 2,
      "byteOffset": 32256,
      "componentType": 5126,
      "count": 38,
      "max": [
        0.0934000015258789,
        0.10096000134944916,
        -0.25040000677108765
      ],
      "min": [
        0.05560001730918884,
        0.08800000697374344,
        -0.29360002279281616
      ],
      "type": "VEC3"
    },
    {
      "bufferView": 2,
      "byteOffset": 32712,
      "componentType": 5126,
      "count": 38,
      "max": [
        1.0,
        0.9704768657684326,
        0.8229403495788574
      ],
      "min": [
        0.0,
        0.0,
        -0.8229403495788574
      ],
      "type": "VEC3"
    },
    {
      "bufferView": 1,
      "byteOffset": 21504,
      "componentType": 5126,
      "count": 38,
      "max": [
        0.75,
        0.5
      ],
      "min": [
        0.0,
        0.0
      ],
      "type": "VEC2"
    },
    {
      "bufferView": 1,
      "byteOffset": 21808,
      "componentType": 5126,
      "count": 38,
      "max": [
        0.75,
        0.5
      ],
      "min": [
        0.0,
        0.0
      ],
      "type": "VEC2"
    },
    {
      "bufferView": 0,
      "byteOffset": 8640,
      "componentType": 5125,
      "count": 60,
      "type": "SCALAR"
    },
    {
      "bufferView": 2,
      "byteOffset": 33168,
      "componentType": 5126,
      "count": 1104,
      "max": [
        1.2266252040863037,
        0.11013728380203247,
        -0.06000000983476639
      ],
      "min": [
        0.05560001730918884,
        0.08009999990463257,
        -0.29405489563941956
      ],
      "type": "VEC3"
    },
    {
      "bufferView": 2,
      "byteOffset": 46416,
      "componentType": 5126,
      "count": 1104,
      "max": [
        1.0,
        1.0,
        0.9897667169570923
      ],
      "min": [
        -1.0,
        -1.0,
        -0.9578372836112976
      ],
      "type": "VEC3"
    },
    {
      "bufferView": 1,
      "byteOffset": 22112,
      "componentType": 5126,
      "count": 1104,
      "max": [
        1.0,
        1.0088015794754028
      ],
      "min": [
        0.0,
        0.0
      ],
      "type": "VEC2"
    },
    {
      "bufferView": 1,
      "byteOffset": 30944,
      "componentType": 5126,
      "count": 1104,
      "max": [
        1.0,
        1.0088015794754028
      ],
      "min": [
        0.0,
        0.0
      ],
      "type": "VEC2"
    },
    {
      "bufferView": 0,
      "byteOffset": 8880,
      "componentType": 5125,
      "count": 1920,
      "type": "SCALAR"
    }
  ],
  "asset": {
    "extras": {
      "author": "La Jarre à Son (https://sketchfab.com/la_jarre_a_son)",
      "license": "SKETCHFAB Standard (https://sketchfab.com/licenses)",
      "source": "https://sketchfab.com/3d-models/ljas-arturia-keylab-88-mk2-200d942b65f54ed1a1f7f1657c124161",
      "title": "LJAS - Arturia Keylab 88 MK2"
    },
    "generator": "Sketchfab-15.98.0",
    "version": "2.0"
  },
  "bufferViews": [
    {
      "buffer": 0,
      "byteLength": 16560,
      "name": "floatBufferViews",
      "target": 34963
    },
    {
      "buffer": 0,
      "byteLength": 39776,
      "byteOffset": 16560,
      "byteStride": 8,
      "name": "floatBufferViews",
      "target": 34962
    },
    {
      "buffer": 0,
      "byteLength": 59664,
      "byteOffset": 56336,
      "byteStride": 12,
      "name": "floatBufferViews",
      "target": 34962
    }
  ],
  "buffers": [
    {
      "byteLength": 116000,
      "uri": "scene.bin"
    }
  ],
  "images": [
    {
      "uri": "textures/Piano.ArturiaKeylab88_baseColor.jpeg"
    }
  ],
  "materials": [
    {
      "doubleSided": true,
      "name": "Plastic.Black",
      "pbrMetallicRoughness": {
        "baseColorFactor": [
          0.00838359,
          0.00838359,
          0.00838359,
          1.0
        ],
        "metallicFactor": 0.0,
        "roughnessFactor": 0.55
      }
    },
    {
      "doubleSided": true,
      "name": "Plastic.White",
      "pbrMetallicRoughness": {
        "baseColorFactor": [
          0.873531,
          0.873531,
          0.873531,
          1.0
        ],
        "metallicFactor": 0.0,
        "roughnessFactor": 0.5
      }
    },
    {
      "doubleSided": true,
      "emissiveFactor": [
        1.0,
        1.0,
        1.0
      ],
      "emissiveTexture": {
        "index": 0,
        "texCoord": 1
      },
      "name": "Piano.ArturiaKeylab88",
      "pbrMetallicRoughness": {
        "baseColorTexture": {
          "index": 0
        },
        "metallicFactor": 0.0,
        "roughnessFactor": 0.5
      }
    },
    {
      "doubleSided": true,
      "name": "Metal.Aluminum",
      "pbrMetallicRoughness": {
        "baseColorFactor": [
          0.46397,
          0.46397,
          0.46397,
          1.0
        ],
        "metallicFactor": 0.5,
        "roughnessFactor": 0.5
      }
    }
  ],
  "meshes": [
    {
      "name": "Object_0",
      "primitives": [
        {
          "attributes": {
            "NORMAL": 1,
            "POSITION": 0,
            "TEXCOORD_0": 2,
            "TEXCOORD_1": 3
          },
          "indices": 4,
          "material": 1,
          "mode": 4
        }
      ]
    },
    {
      "name": "Object_1",
      "primitives": [
        {
          "attributes": {
            "NORMAL": 6,
            "POSITION": 5,
            "TEXCOORD_0": 7,
            "TEXCOORD_1": 8
          },
          "indices": 9,
          "material": 2,
          "mode": 4
        }
      ]
    },
    {
      "name": "Object_2",
      "primitives": [
        {
          "attributes": {
            "NORMAL": 11,
            "POSITION": 10,
            "TEXCOORD_0": 12,
            "TEXCOORD_1": 13
          },
          "indices": 14,
          "material": 3,
          "mode": 4
        }
      ]
    },
    {
      "name": "Object_3",
      "primitives": [
        {
          "attributes": {
            "NORMAL": 16,
            "POSITION": 15,
            "TEXCOORD_0": 17,
            "TEXCOORD_1": 18
          },
          "indices": 19,
          "material": 0,
          "mode": 4
        }
      ]
    }
  ],
  "nodes": [
    {
      "children": [
        1
      ],
      "matrix": [
        1.0,
        -1.608122622957729e-16,
        -1.6081226229577294e-16,
        0.0,
        -1.6081226229577292e-16,
        5.053215392444312e-16,
        -1.0,
        0.0,
        1.6081226229577292e-16,
        1.0,
        5.053215392444312e-16,
        0.0,
        0.0,
        0.0,
        0.0,
        1.0
      ],
      "name": "Sketchfab_model"
    },
    {
      "children": [
        2
      ],
      "name": "root"
    },
    {
      "children": [
        3
      ],
      "matrix": [
        1.0,
        0.0,
        0.0,
        0.0,
        0.0,
        2.220446049250313e-16,
        1.0,
        0.0,
        0.0,
        -1.0,
        2.220446049250313e-16,
        0.0,
        0.0,
        0.0,
        0.0,
        1.0
      ],
      "name": "GLTF_SceneRootNode"
    },
    {
      "children": [
        4,
        5,
        6,
        7
      ],
      "name": "Piano.ArturiaKeylab88_0"
    },
    {
      "mesh": 0,
      "name": "Object_4"
    },
    {
      "mesh": 1,
      "name": "Object_5"
    },
    {
      "mesh": 2,
      "name": "Object_6"
    },
    {
      "mesh": 3,
      "name": "Object_7"
    }
  ],
  "samplers": [
    {
      "magFilter": 9729,
      "minFilter": 9987,
      "wrapS": 10497,
      "wrapT": 10497
    }
  ],
  "scene": 0,
  "scenes": [
    {
      "name": "Sketchfab_Scene",
      "nodes": [
        0
      ]
    }
  ],
  "textures": [
    {
      "sampler": 0,
      "source": 0
    }
  ]
}
