{
  "accessors": [
    {
      "bufferView": 1,
      "componentType": 5126,
      "count": 3180,
      "max": [
        -4.880000114440918,
        -0.0,
        27.155000686645508
      ],
      "min": [
        -125.80599975585938,
        -67.0,
        -9.779999732971191
      ],
      "type": "VEC3"
    },
    {
      "bufferView": 1,
      "byteOffset": 38160,
      "componentType": 5126,
      "count": 3180,
      "max": [
        1.0,
        1.0,
        1.0
      ],
      "min": [
        -1.0,
        -1.0,
        -1.0
      ],
      "type": "VEC3"
    },
    {
      "bufferView": 0,
      "componentType": 5125,
      "count": 9342,
      "type": "SCALAR"
    },
    {
      "bufferView": 1,
      "byteOffset": 76320,
      "componentType": 5126,
      "count": 11576,
      "max": [
        -4.03000020980835,
        -46.0,
        26.969999313354492
      ],
      "min": [
        -127.02999877929688,
        -54.0,
        -7.53000020980835
      ],
      "type": "VEC3"
    },
    {
      "bufferView": 1,
      "byteOffset": 215232,
      "componentType": 5126,
      "count": 11576,
      "max": [
        1.0,
        1.0,
        1.0
      ],
      "min": [
        -1.0,
        -1.0,
        -1.0
      ],
      "type": "VEC3"
    },
    {
      "bufferView": 0,
      "byteOffset": 37368,
      "componentType": 5125,
      "count": 39717,
      "type": "SCALAR"
    },
    {
      "bufferView": 1,
      "byteOffset": 354144,
      "componentType": 5126,
      "count": 4078,
      "max": [
        -12.031000137329102,
        -51.12699890136719,
        26.989999771118164
      ],
      "min": [
        -120.26799774169922,
        -70.71099853515625,
        -7.03000020980835
      ],
      "type": "VEC3"
    },
    {
      "bufferView": 1,
      "byteOffset": 403080,
      "componentType": 5126,
      "count": 4078,
      "max": [
        1.0,
        1.0,
        1.0
      ],
      "min": [
        -1.0,
        -1.0,
        -1.0
      ],
      "type": "VEC3"
    },
    {
      "bufferView": 0,
      "byteOffset": 196236,
      "componentType": 5125,
      "count": 9840,
      "type": "SCALAR"
    },
    {
      "bufferView": 1,
      "byteOffset": 452016,
      "componentType": 5126,
      "count": 65532,
      "max": [
        -13.229999542236328,
        -50.79800033569336,
        31.280000686645508
      ],
      "min": [
        -117.93000030517578,
        -69.83999633789063,
        -2.996999979019165
      ],
      "type": "VEC3"
    },
    {
      "bufferView": 1,
      "byteOffset": 1238400,
      "componentType": 5126,
      "count": 65532,
      "max": [
        1.0,
        1.0,
        1.0
      ],
      "min": [
        -1.0,
        -1.0,
        -1.0
      ],
      "type": "VEC3"
    },
    {
      "bufferView": 0,
      "byteOffset": 235596,
      "componentType": 5125,
      "count": 189822,
      "type": "SCALAR"
    },
    {
      "bufferView": 1,
      "byteOffset": 2024784,
      "componentType": 5126,
      "count": 15002,
      "max": [
        -50.125999450683594,
        -50.79800033569336,
        26.384700775146484
      ],
      "min": [
        -117.02999877929688,
        -69.80799865722656,
        -2.996999979019165
      ],
      "type": "VEC3"
    },
    {
      "bufferView": 1,
      "byteOffset": 2204808,
      "componentType": 5126,
      "count": 15002,
      "max": [
        1.0,
        1.0,
        1.0
      ],
      "min": [
        -1.0,
        -1.0,
        -1.0
      ],
      "type": "VEC3"
    },
    {
      "bufferView": 0,
      "byteOffset": 994884,
      "componentType": 5125,
      "count": 39702,
      "type": "SCALAR"
    },
    {
      "bufferView": 1,
      "byteOffset": 2384832,
      "componentType": 5126,
      "count": 56,
      "max": [
        -54.71699905395508,
        -55.0,
        19.219999313354492
      ],
      "min": [
        -74.71700286865234,
        -55.0099983215332,
        14.220000267028809
      ],
      "type": "VEC3"
    },
    {
      "bufferView": 1,
      "byteOffset": 2385504,
      "componentType": 5126,
      "count": 56,
      "max": [
        1.0,
        1.0,
        1.0
      ],
      "min": [
        -1.0,
        -1.0,
        -1.0
      ],
      "type": "VEC3"
    },
    {
      "bufferView": 0,
      "byteOffset": 1153692,
      "componentType": 5125,
      "count": 132,
      "type": "SCALAR"
    }
  ],
  "asset": {
    "extras": {
      "author": "Speedude_Customs (https://sketchfab.com/Speedude_Customs)",
      "license": "SKETCHFAB Standard (https://sketchfab.com/licenses)",
      "source": "https://sketchfab.com/3d-models/electric-piano-1a66343f60644374b727df78ce47f5d0",
      "title": "Electric Piano"
    },
    "generator": "Sketchfab-16.3.0",
    "version": "2.0"
  },
  "bufferViews": [
    {
      "buffer": 0,
      "byteLength": 1154220,
      "name": "floatBufferViews",
      "target": 34963
    },
    {
      "buffer": 0,
      "byteLength": 2386176,
      "byteOffset": 1154220,
      "byteStride": 12,
      "name": "floatBufferViews",
      "target": 34962
    }
  ],
  "buffers": [
    {
      "byteLength": 3540396,
      "uri": "scene.bin"
    }
  ],
  "extensionsUsed": [
    "KHR_materials_specular"
  ],
  "materials": [
    {
      "doubleSided": true,
      "name": "color_0",
      "pbrMetallicRoughness": {
        "baseColorFactor": [
          0.016789177993879932,
          0.0,
          0.0,
          1.0
        ],
        "metallicFactor": 0.0,
        "roughnessFactor": 0.6
      }
    },
    {
      "doubleSided": true,
      "extensions": {
        "KHR_materials_specular": {
          "specularColorFactor": [
            1.0,
            1.0,
            1.0
          ],
          "specularFactor": 0.0
        }
      },
      "name": "color_13842231",
      "pbrMetallicRoughness": {
        "baseColorFactor": [
          0.827451,
          0.215686,
          0.215686,
          1.0
        ],
        "metallicFactor": 0.0
      }
    },
    {
      "doubleSided": true,
      "name": "color_16448250",
      "pbrMetallicRoughness": {
        "baseColorFactor": [
          0.980392,
          0.980392,
          0.980392,
          1.0
        ],
        "metallicFactor": 0.0
      }
    },
    {
      "doubleSided": true,
      "name": "color_2829873",
      "pbrMetallicRoughness": {
        "baseColorFactor": [
          0.168627,
          0.180392,
          0.192157,
          1.0
        ],
        "metallicFactor": 0.0
      }
    },
    {
      "doubleSided": true,
      "name": "color_40919",
      "pbrMetallicRoughness": {
        "baseColorFactor": [
          0.0,
          0.6235289999999998,
          0.8431369999999998,
          1.0
        ],
        "metallicFactor": 0.0
      }
    }
  ],
  "meshes": [
    {
      "name": "Object_0",
      "primitives": [
        {
          "attributes": {
            "NORMAL": 1,
            "POSITION": 0
          },
          "indices": 2,
          "material": 0,
          "mode": 4
        }
      ]
    },
    {
      "name": "Object_1",
      "primitives": [
        {
          "attributes": {
            "NORMAL": 4,
            "POSITION": 3
          },
          "indices": 5,
          "material": 1,
          "mode": 4
        }
      ]
    },
    {
      "name": "Object_2",
      "primitives": [
        {
          "attributes": {
            "NORMAL": 7,
            "POSITION": 6
          },
          "indices": 8,
          "material": 2,
          "mode": 4
        }
      ]
    },
    {
      "name": "Object_3",
      "primitives": [
        {
          "attributes": {
            "NORMAL": 10,
            "POSITION": 9
          },
          "indices": 11,
          "material": 3,
          "mode": 4
        }
      ]
    },
    {
      "name": "Object_4",
      "primitives": [
        {
          "attributes": {
            "NORMAL": 13,
            "POSITION": 12
          },
          "indices": 14,
          "material": 3,
          "mode": 4
        }
      ]
    },
    {
      "name": "Object_5",
      "primitives": [
        {
          "attributes": {
            "NORMAL": 16,
            "POSITION": 15
          },
          "indices": 17,
          "material": 4,
          "mode": 4
        }
      ]
    }
  ],
  "nodes": [
    {
      "children": [
        1
      ],
      "matrix": [
        1.0,
        2.2204460492503128e-16,
        6.123234262925844e-17,
        0.0,
        2.220446049250313e-16,
        -1.0,
        0.0,
        0.0,
        6.123234262925839e-17,
        0.0,
        -1.0,
        0.0,
        0.0,
        0.0,
        0.0,
        1.0
      ],
      "name": "Sketchfab_model"
    },
    {
      "children": [
        2,
        3,
        4,
        5,
        6,
        7
      ],
      "name": "tinker.obj.cleaner.materialmerger.gles"
    },
    {
      "mesh": 0,
      "name": "Object_2"
    },
    {
      "mesh": 1,
      "name": "Object_3"
    },
    {
      "mesh": 2,
      "name": "Object_4"
    },
    {
      "mesh": 3,
      "name": "Object_5"
    },
    {
      "mesh": 4,
      "name": "Object_6"
    },
    {
      "mesh": 5,
      "name": "Object_7"
    }
  ],
  "scene": 0,
  "scenes": [
    {
      "name": "Sketchfab_Scene",
      "nodes": [
        0
      ]
    }
  ]
}
